# Blender v2.79 (sub 0) OBJ File: 'corazon.blend'
# www.blender.org
mtllib corazon.mtl
o Icosphere
v 0.000000 -1.000000 -0.016040
v 0.615109 -0.447220 0.296072
v -0.198442 -0.447220 0.488973
v -0.700054 -0.447216 -0.016040
v -0.198442 -0.447220 -0.521052
v 0.615109 -0.447220 -0.328152
v 0.276217 0.450160 0.488661
v -0.723607 0.447220 0.296072
v -0.723607 0.447220 -0.328152
v 0.276217 0.450160 -0.520741
v 0.894426 0.447216 -0.016040
v 0.000000 0.439758 -0.016040
v -0.057022 -0.850654 0.280797
v 0.188274 -0.850654 0.167414
v 0.171636 -0.525738 0.464253
v 0.606460 -0.525736 -0.016040
v 0.188274 -0.850654 -0.199493
v -0.259649 -0.850652 -0.016040
v -0.545231 -0.525736 0.280798
v -0.057022 -0.850654 -0.312877
v -0.545231 -0.525736 -0.312878
v 0.171636 -0.525738 -0.496333
v 0.951058 0.000000 0.167414
v 0.951058 0.000000 -0.199494
v 0.000000 0.003804 0.588820
v 0.583413 0.000000 0.464256
v -0.951058 0.000000 0.167414
v -0.583413 0.000000 0.464256
v -0.583413 0.000000 -0.496336
v -0.951058 0.000000 -0.199494
v 0.583413 0.000000 -0.496336
v 0.000000 0.003804 -0.577058
v 0.688189 0.525736 0.280798
v -0.262766 0.490313 0.464066
v -0.850648 0.525736 -0.016040
v -0.262766 0.527556 -0.496146
v 0.688189 0.525736 -0.312878
v 0.160978 0.493292 0.278096
v 0.525730 0.699050 -0.016040
v -0.425321 0.661691 0.167413
v -0.425321 0.689038 -0.199493
v 0.160978 0.543499 -0.310176
vn 0.2180 -0.8544 0.4717
vn 0.6498 -0.7412 0.1685
vn -0.4720 -0.8206 0.3222
vn -0.4720 -0.8206 -0.3222
vn 0.2181 -0.8544 -0.4717
vn 0.8101 -0.5735 0.1218
vn 0.0177 -0.2235 0.9745
vn -0.7900 -0.5525 0.2659
vn -0.4316 -0.3250 -0.8415
vn 0.3843 -0.3010 -0.8728
vn 0.6097 -0.2408 0.7552
vn -0.2064 -0.1240 0.9706
vn -0.8720 -0.4894 0.0000
vn -0.1364 -0.0628 -0.9887
vn 0.6097 -0.2408 -0.7552
vn -0.0609 0.9708 0.2322
vn -0.2863 0.7533 0.5921
vn -0.4720 0.7902 -0.3909
vn 0.1177 0.9301 -0.3479
vn 0.5557 0.8136 -0.1709
vn -0.4411 0.8944 0.0740
vn 0.0268 0.8696 -0.4931
vn 0.0290 0.9196 -0.3918
vn 0.2946 0.8391 0.4572
vn 0.1461 0.9003 -0.4100
vn -0.3419 0.7340 -0.5869
vn 0.4835 0.8729 0.0651
vn -0.3310 0.9410 0.0701
vn -0.4263 0.8209 0.3800
vn 0.3180 0.8868 -0.3354
vn 0.1771 0.8911 0.4178
vn 0.0658 0.9840 0.1656
vn -0.4410 0.8941 0.0786
vn -0.0549 0.8489 0.5257
vn 0.5557 0.8136 0.1709
vn 0.8182 0.3038 -0.4881
vn 0.6216 0.1448 -0.7699
vn 0.4049 0.2283 -0.8854
vn -0.0250 0.1404 -0.9898
vn -0.1371 0.0837 -0.9870
vn -0.3680 0.2240 -0.9024
vn -0.8506 0.3105 -0.4243
vn -0.9822 0.1876 0.0000
vn -0.8506 0.3105 0.4243
vn -0.3522 0.2307 0.9070
vn -0.2077 0.1362 0.9687
vn -0.0269 0.2347 0.9717
vn 0.4049 0.2283 0.8854
vn 0.6216 0.1448 0.7699
vn 0.8182 0.3038 0.4881
vn 0.1372 0.0400 -0.9897
vn 0.1356 -0.1062 -0.9851
vn 0.0366 -0.1390 -0.9896
vn -0.6254 0.0952 -0.7745
vn -0.5988 -0.3023 -0.7416
vn -0.7900 -0.5525 -0.2659
vn -0.6254 0.0952 0.7745
vn -0.5988 -0.3023 0.7416
vn -0.4316 -0.3250 0.8415
vn 0.2085 0.0895 0.9739
vn 0.2051 -0.1606 0.9655
vn 0.3843 -0.3010 0.8728
vn 0.9921 0.1256 0.0000
vn 0.8364 -0.5482 0.0000
vn 0.8101 -0.5735 -0.1218
vn 0.3724 -0.6155 -0.6946
vn 0.3264 -0.6284 -0.7061
vn -0.0407 -0.4694 -0.8820
vn -0.3483 -0.5234 -0.7777
vn -0.5182 -0.7787 -0.3537
vn -0.6673 -0.7284 -0.1554
vn -0.6673 -0.7284 0.1554
vn -0.5182 -0.7787 0.3537
vn -0.3483 -0.5234 0.7777
vn 0.6498 -0.7412 -0.1685
vn 0.6135 -0.7897 0.0000
vn 0.6215 -0.7834 0.0000
vn -0.0407 -0.4694 0.8820
vn 0.3264 -0.6284 0.7061
vn 0.3724 -0.6155 0.6946
usemtl Material
s off
f 1//1 14//1 13//1
f 2//2 14//2 16//2
f 1//3 13//3 18//3
f 1//4 18//4 20//4
f 1//5 20//5 17//5
f 2//6 16//6 23//6
f 3//7 15//7 25//7
f 4//8 19//8 27//8
f 5//9 21//9 29//9
f 6//10 22//10 31//10
f 2//11 23//11 26//11
f 3//12 25//12 28//12
f 4//13 27//13 30//13
f 5//14 29//14 32//14
f 6//15 31//15 24//15
f 7//16 33//16 38//16
f 8//17 34//17 40//17
f 9//18 35//18 41//18
f 10//19 36//19 42//19
f 11//20 37//20 39//20
f 39//21 42//21 12//21
f 39//22 37//22 42//22
f 37//23 10//23 42//23
f 42//24 41//24 12//24
f 42//25 36//25 41//25
f 36//26 9//26 41//26
f 41//27 40//27 12//27
f 41//28 35//28 40//28
f 35//29 8//29 40//29
f 40//30 38//30 12//30
f 40//31 34//31 38//31
f 34//32 7//32 38//32
f 38//33 39//33 12//33
f 38//34 33//34 39//34
f 33//35 11//35 39//35
f 24//36 37//36 11//36
f 24//37 31//37 37//37
f 31//38 10//38 37//38
f 32//39 36//39 10//39
f 32//40 29//40 36//40
f 29//41 9//41 36//41
f 30//42 35//42 9//42
f 30//43 27//43 35//43
f 27//44 8//44 35//44
f 28//45 34//45 8//45
f 28//46 25//46 34//46
f 25//47 7//47 34//47
f 26//48 33//48 7//48
f 26//49 23//49 33//49
f 23//50 11//50 33//50
f 31//51 32//51 10//51
f 31//52 22//52 32//52
f 22//53 5//53 32//53
f 29//54 30//54 9//54
f 29//55 21//55 30//55
f 21//56 4//56 30//56
f 27//57 28//57 8//57
f 27//58 19//58 28//58
f 19//59 3//59 28//59
f 25//60 26//60 7//60
f 25//61 15//61 26//61
f 15//62 2//62 26//62
f 23//63 24//63 11//63
f 23//64 16//64 24//64
f 16//65 6//65 24//65
f 17//66 22//66 6//66
f 17//67 20//67 22//67
f 20//68 5//68 22//68
f 20//69 21//69 5//69
f 20//70 18//70 21//70
f 18//71 4//71 21//71
f 18//72 19//72 4//72
f 18//73 13//73 19//73
f 13//74 3//74 19//74
f 16//75 17//75 6//75
f 16//76 14//76 17//76
f 14//77 1//77 17//77
f 13//78 15//78 3//78
f 13//79 14//79 15//79
f 14//80 2//80 15//80
